# xmcd
#
# Track frame offsets:
#	150
#	17655
#	29723
#	41281
#	51861
#	63378
#	81817
#	94747
#	108519
#	122325
#	139301
#	150985
#	163717
#	176096
#	195658
#	208862
#	222972
#	240451
#	256534
#	277914
#	292175
#	303949
#	317036
#
# Disc length: 4316 seconds
#
# Revision: 0
# Processed by: cddbd v1.5.2PL0 Copyright (c) Steve Scherf et al.
# Submitted via: dBpowerAMP V4.0
#
DISCID=4110da17
DTITLE=Doctor Hook - Dr. Hook And The Medicine Show and Sloppy Seconds (Remastered)
DYEAR=2008
DGENRE=
TTITLE0=Sylvia's Mother
TTITLE1=Marie Lavaux
TTITLE2=Sing Me A Rainbow
TTITLE3=Hey, Lady Godiva
TTITLE4=Four Years Older Than Me
TTITLE5=Kiss It Away
TTITLE6=Makin' It Natural
TTITLE7=I Call That True Love
TTITLE8=When She Cries
TTITLE9=Judy
TTITLE10=Mama, I'll Sing One Song For You
TTITLE11=Freaker's Ball
TTITLE12=If I'd Only Come And Gone
TTITLE13=Carry Me, Carrie
TTITLE14=The Things I Didn't Say
TTITLE15=Get My Rocks Off
TTITLE16=Last Mornin'
TTITLE17=I Can't Touch The Sun
TTITLE18=Queen Of The Silver Dollar
TTITLE19=Turn On The World
TTITLE20=Stayin' Song
TTITLE21=The Cover Of "Rolling Stone"
TTITLE22=Looking For Pussy
EXTD=
EXTT0=
EXTT1=
EXTT2=
EXTT3=
EXTT4=
EXTT5=
EXTT6=
EXTT7=
EXTT8=
EXTT9=
EXTT10=
EXTT11=
EXTT12=
EXTT13=
EXTT14=
EXTT15=
EXTT16=
EXTT17=
EXTT18=
EXTT19=
EXTT20=
EXTT21=
EXTT22=
PLAYORDER=
